<svg xmlns="http://www.w3.org/2000/svg" width="0" height="0">

	<svg id="icon-undo" viewBox="0 0 13 13">
		<style type="text/css">
			.st0{fill:#333;}
		</style>
		<path class="st0" d="M6.5,1.9C5,1.9,3.6,2.5,2.6,3.5L1,1.9V6h4.1L3.6,4.5c0.7-0.7,1.8-1.2,2.9-1.2c2.3,0,4.1,1.8,4.1,4.1c0,1.2-0.5,2.3-1.4,3.1 l0.9,1c1.1-1,1.9-2.5,1.9-4.1C12,4.3,9.5,1.9,6.5,1.9z"/>
	</svg>

	<svg id="icon-redo" viewBox="0 0 13 13">
		<style type="text/css">
			.st0{fill:#333;}
		</style>
		<path class="st0" d="M1,7.4c0,1.6,0.7,3.1,1.8,4.1l0.9-1C2.9,9.7,2.4,8.6,2.4,7.4c0-2.3,1.8-4.1,4.1-4.1c1.1,0,2.2,0.5,2.9,1.2L7.9,6H12V1.9 l-1.6,1.6c-1-1-2.4-1.6-3.9-1.6C3.5,1.9,1,4.4,1,7.4z"/>
	</svg>

	<svg id="icon-tool-move" viewBox="0 0 13 13">
		<style type="text/css">
			.st0{fill:#333;}
		</style>
		<polygon class="st0" points="13,6.5 10,4.4 10,5.8 7.4,5.8 7.2,5.8 7.2,5.6 7.2,3 8.6,3 6.5,0 4.4,3 5.8,3 5.8,5.6 5.8,5.8 3,5.8 
			3,4.4 0,6.5 3,8.6 3,7.2 5.8,7.2 5.8,10 4.4,10 6.5,13 8.6,10 7.2,10 7.2,7.2 7.4,7.2 10,7.2 10,8.6 "/>
	</svg>

	<svg id="icon-tool-resize" viewBox="0 0 13 13">
		<style type="text/css">
			.st0{fill:#333;}
			.st1{fill:#33333360;}
		</style>
		<polygon class="st0" points="10.5,4.7 11,2 8.3,2.6 9.1,3.3 6.2,6.1 6.9,6.8 9.8,4 "/>
		<polygon class="st0" points="13.1,13 7,13 7,12 12.1,12 12,1 1,1 1,6 0,6 0,0 13,0 "/>
		<rect y="7" class="st1" width="6" height="6"/>
	</svg>

	<svg id="icon-zoom-plus" viewBox="0 0 13 13">
		<style type="text/css">
			.st0{fill:#333;}
		</style>
		<path class="st0" d="M11.6,10.4L9.1,8.2C8.8,8,8.5,7.8,8.3,7.8c0.6-0.7,1-1.7,1-2.6C9.2,2.8,7.4,1,5.1,1S1,2.8,1,5.1
			s1.8,4.1,4.1,4.1c1,0,2-0.4,2.6-1c0,0.2,0.1,0.5,0.4,0.8l2.2,2.6c0.4,0.4,1,0.4,1.4,0.1C12.1,11.3,12.1,10.7,11.6,10.4z M5.1,7.9
			c-1.5,0-2.7-1.2-2.7-2.7s1.2-2.7,2.7-2.7c1.5,0,2.7,1.2,2.7,2.7S6.6,7.9,5.1,7.9z"/>
		<polygon class="st0" points="5.5,3.3 4.6,3.3 4.6,4.7 3.2,4.7 3.2,5.7 4.6,5.7 4.6,7.1 5.5,7.1 5.5,5.7 7,5.7 7,4.7 5.5,4.7 "/>
	</svg>

	<svg id="icon-zoom-minus" viewBox="0 0 13 13">
		<style type="text/css">
			.st0{fill:#333;}
		</style>
		<path class="st0" d="M11.6,10.3L9.1,8.1C8.8,7.9,8.5,7.7,8.2,7.7c0.6-0.7,1-1.6,1-2.6C9.2,2.8,7.4,1,5.1,1S1,2.8,1,5.1
			s1.8,4.1,4.1,4.1c1,0,1.9-0.4,2.6-1c0,0.2,0.1,0.5,0.4,0.8l2.2,2.6c0.4,0.4,1,0.4,1.4,0.1C12.1,11.3,12.1,10.7,11.6,10.3L11.6,10.3z
			 M5.1,7.9c-1.5,0-2.7-1.2-2.7-2.7s1.2-2.7,2.7-2.7c1.5,0,2.7,1.2,2.7,2.7S6.6,7.9,5.1,7.9z"/>
		<rect x="3.2" y="4.7" class="st0" width="3.8" height="1"/>
	</svg>

	<svg id="icon-prev" viewBox="0 0 13 13">
		<style type="text/css">
			.st0{fill:#333;}
		</style>
		<path class="st0" d="M6.4,10.4V2.6c0-0.3-0.2-0.5-0.4-0.3L1,6.2C0.8,6.3,0.8,6.7,1,6.8l5,3.9C6.2,10.9,6.4,10.7,6.4,10.4z"/>
		<path class="st0" d="M12,10.4V2.6c0-0.3-0.2-0.5-0.4-0.3l-5,3.9c-0.2,0.1-0.2,0.5,0,0.6l5,3.9C11.7,10.9,12,10.7,12,10.4z"/>
	</svg>

	<svg id="icon-rewind" viewBox="0 0 13 13">
		<style type="text/css">
			.st0{fill:#333;}
		</style>
		<path class="st0" d="M12,10.4V2.6c0-0.3-0.2-0.5-0.4-0.3L5.2,6.2C5,6.3,5,6.7,5.2,6.8l6.4,3.9C11.7,10.9,12,10.7,12,10.4z"/>
		<path class="st0" d="M3.4,10.8H1.6c-0.3,0-0.6-0.3-0.6-0.6V2.8c0-0.3,0.3-0.6,0.6-0.6h1.8C3.7,2.2,4,2.5,4,2.8v7.4
			C4,10.5,3.7,10.8,3.4,10.8z"/>
	</svg>

	<svg id="icon-forward" viewBox="0 0 13 13">
		<style type="text/css">
			.st0{fill:#333;}
		</style>
		<path class="st0" d="M1,2.6v7.8c0,0.3,0.2,0.5,0.4,0.3l6.4-3.9C8,6.7,8,6.3,7.8,6.2L1.4,2.3C1.3,2.1,1,2.3,1,2.6z"/>
		<path class="st0" d="M9.6,2.2h1.8c0.3,0,0.6,0.3,0.6,0.6v7.4c0,0.3-0.3,0.6-0.6,0.6H9.6c-0.3,0-0.6-0.3-0.6-0.6V2.8
			C9,2.5,9.3,2.2,9.6,2.2z"/>
	</svg>

	<svg id="icon-next" viewBox="0 0 13 13">
		<style type="text/css">
			.st0{fill:#333;}
		</style>
		<path class="st0" d="M6.6,2.6v7.8c0,0.3,0.2,0.5,0.4,0.3l5-3.9c0.2-0.1,0.2-0.5,0-0.7L7,2.3C6.8,2.1,6.6,2.3,6.6,2.6z"/>
		<path class="st0" d="M1,2.6v7.8c0,0.3,0.2,0.5,0.4,0.3l5-3.9c0.2-0.1,0.2-0.5,0-0.7l-5-3.9C1.3,2.1,1,2.3,1,2.6z"/>
	</svg>

	<svg id="icon-stop" viewBox="0 0 13 13">
		<style type="text/css">
			.st0{fill:#333;}
		</style>
		<path class="st0" d="M10.5,11h-8C2.2,11,2,10.8,2,10.5v-8C2,2.2,2.2,2,2.5,2h8C10.8,2,11,2.2,11,2.5v8C11,10.8,10.8,11,10.5,11z"/>
	</svg>

	<svg id="icon-play" viewBox="0 0 13 13">
		<style type="text/css">
			.st0{fill:#333;}
		</style>
		<path class="st0" d="M2,1.7v9.6c0,0.4,0.4,0.6,0.7,0.4l8.4-4.8c0.3-0.2,0.3-0.6,0-0.8L2.7,1.3C2.4,1.1,2,1.4,2,1.7z"/>
	</svg>

	<svg id="negative-corner" viewBox="0 0 6 6">
		<path fill="#454545" d="M0,6h6V0C6,3.3,3.3,6,0,6z"/>
	</svg>

	<svg id="icon-folder-open" viewBox="0 0 17 17">
		<style type="text/css">
			.st0{fill:#333;}
		</style>
		<path class="st0" d="M16,9.5c0,0.2-0.1,0.4-0.2,0.5L13.1,13c-0.5,0.5-1.4,1-2.1,1H2.3c-0.3,0-0.7-0.1-0.7-0.4c0-0.2,0.1-0.4,0.2-0.5L4.5,10
			C5,9.4,5.9,9,6.6,9h8.7C15.6,9,16,9.1,16,9.5z M13.2,6.4V8H6.6c-1,0-2.2,0.6-2.9,1.3L1,12.4c0-0.1,0-0.1,0-0.2l0-7.7
			C1,3.5,1.3,3,2.3,3h3.5c1,0,1.4,0.3,1.4,1.3V5h4.7C12.8,5,13.2,5.4,13.2,6.4z"/>
	</svg>

	<svg id="icon-clipboard" viewBox="0 0 17 17">
		<style type="text/css">
			.st0{fill:#333;}
		</style>
		<path class="st0" d="M14.6,2.9h-4.2c0-1-0.8-1.9-1.9-1.9S6.6,1.8,6.6,2.9H2.4c-0.3,0-0.5,0.2-0.5,0.5v12.2c0,0.3,0.2,0.5,0.5,0.5h12.2
			c0.3,0,0.5-0.2,0.5-0.5V3.3C15.1,3.1,14.9,2.9,14.6,2.9z M8.5,1.9c0.5,0,0.9,0.4,0.9,0.9S9,3.8,8.5,3.8S7.6,3.4,7.6,2.9
			S8,1.9,8.5,1.9z M14,15H3V4h1.7v1.5C4.7,5.8,5,6,5.2,6h6.6c0.3,0,0.5-0.2,0.5-0.5V4H14V15z"/>
		<path class="st0" d="M7.6,13.6l-3-3.5l0.9-0.9l2.2,1.7l4-3.6l0.9,0.9L7.6,13.6z"/>
	</svg>

	<svg id="icon-paint" viewBox="0 0 15 15">
		<style type="text/css">
			.st0{fill:#333;}
		</style>
		<path class="st0" d="M5.3,5.3c0,0.7-0.6,1.3-1.3,1.3S2.7,6.1,2.7,5.3S3.3,4,4,4S5.3,4.6,5.3,5.3z M12.3,7.9v3H2.7V9.7l2.2-2.2L6,8.6l3.5-3.5
			L12.3,7.9z M12.8,3L2.2,3C2.1,3,2,3.1,2,3.2v8.5C2,11.9,2.1,12,2.2,12l10.6,0c0.1,0,0.2-0.1,0.2-0.2V3.2C13,3.1,12.9,3,12.8,3z
			 M14,3.1l0,8.9c0,0.6-0.5,1-1.1,1H2.1c-0.6,0-1.1-0.4-1.1-1l0-8.9C1,2.5,1.5,2,2.1,2h10.8C13.5,2,14,2.5,14,3.1z"/>
	</svg>

	<svg id="icon-preview" viewBox="0 0 15 15">
		<style type="text/css">
			.st0{fill:#333;}
		</style>
		<path class="st0" d="M5.5,9.9l4.9-2.5L5.5,4.8V9.9z M7.5,2.9c2.7,0,4.5,0.1,4.5,0.1c0.3,0,0.8,0,1.3,0.6c0,0,0.4,0.4,0.5,1.3C14,6,14,7,14,7v1
			c0,0,0,1.1-0.1,2.1c-0.1,0.9-0.5,1.3-0.5,1.3c-0.5,0.5-1.1,0.5-1.3,0.5c0,0-1.8,0.1-4.5,0.1l0,0c-3.4,0-4.4-0.1-4.4-0.1
			c-0.3-0.1-0.9,0-1.4-0.6c0,0-0.4-0.4-0.5-1.3C1,9,1,8,1,8V7C1,7,1,6,1.1,4.9C1.3,4,1.7,3.6,1.7,3.6C2.1,3.1,2.7,3.1,3,3.1
			C3,3.1,4.8,2.9,7.5,2.9L7.5,2.9z"/>
	</svg>

	<svg id="icon-code" viewBox="0 0 15 15">
		<style type="text/css">
			.st0{fill:#333;}
		</style>
		<path class="st0" d="M8.9,11.5v1c0,0.3-0.2,0.5-0.5,0.5h-7C1.2,13,1,12.8,1,12.5v-1C1,11.2,1.2,11,1.5,11h7C8.7,11,8.9,11.2,8.9,11.5z M11.2,8.5
			v1c0,0.3-0.2,0.5-0.5,0.5H1.5C1.2,10,1,9.8,1,9.5v-1C1,8.2,1.2,8,1.5,8h9.3C11,8,11.2,8.2,11.2,8.5z M13,5.5v1C13,6.8,12.8,7,12.6,7
			H1.5C1.2,7,1,6.8,1,6.5v-1C1,5.2,1.2,5,1.5,5h11.1C12.8,5,13,5.2,13,5.5z M11.1,2.5v1c0,0.3-0.2,0.5-0.5,0.5H1.5C1.2,4,1,3.8,1,3.5
			v-1C1,2.2,1.2,2,1.5,2h9.2C10.9,2,11.1,2.2,11.1,2.5z"/>
	</svg>

	<svg id="icon-sort" viewBox="0 0 15 15">
		<style type="text/css">
			.st0{fill:#333;}
		</style>
		<polygon class="st0" points="5,6 10,6 7.5,2.3 "/>
		<polygon class="st0" points="10,9 5,9 7.5,12.7 "/>
	</svg>

	<svg id="icon-zoom" viewBox="0 0 15 15">
		<style type="text/css">
			.st0{fill:#333;}
		</style>
		<path class="st0" d="M12.6,11.4l-2.6-2.2C9.8,9,9.5,8.8,9.3,8.8c0.6-0.7,0.9-1.7,0.9-2.6C10.2,3.9,8.4,2,6.1,2S2,3.9,2,6.1
			s1.8,4.1,4.1,4.1c1,0,2-0.4,2.6-0.9c0,0.2,0.1,0.5,0.4,0.8l2.2,2.6c0.4,0.4,1,0.4,1.4,0.1C13.1,12.3,13.1,11.7,12.6,11.4L12.6,11.4z
			 M6.1,8.9c-1.5,0-2.7-1.2-2.7-2.7s1.2-2.7,2.7-2.7c1.5,0,2.7,1.2,2.7,2.7S7.7,8.9,6.1,8.9z"/>
	</svg>

	<svg id="icon-new" viewBox="0 0 15 15">
		<style type="text/css">
			.st0{fill:#333;}
		</style>
		<polygon class="st0" points="3,2 3,13 12,13 12,6.2 7.8,6.2 7.8,2 "/>
		<polygon class="st0" points="8.5,5.7 11.9,5.7 8.5,2.1 "/>
	</svg>

	<svg id="icon-trashcan" viewBox="0 0 15 15">
		<style type="text/css">
			.st0{fill:#333;}
		</style>
		<polygon class="st0" points="4,4 11,4 11,3 8.3,3 8.3,2 6.7,2 6.7,3 4,3 "/>
		<path class="st0" d="M3.4,5l0,1h0.8l0.3,7h6.1l0.3-7h0.8l0-1H3.4L3.4,5z M6.1,11.3H5.5L5.4,6.6h0.8L6.1,11.3L6.1,11.3z M7.8,11.3
			H7.2V6.6h0.6V11.3z M9.5,11.3H8.9V6.6h0.8L9.5,11.3z"/>
	</svg>

	<svg id="icon-pencil" viewBox="0 0 15 15">
		<style type="text/css">
			.st0{fill:#333;}
		</style>
		<path class="st0" d="M4.1,13l0.8-0.8l-2-2L2,10.9v0.9h1.1V13H4.1z M8.6,4.9c0-0.1-0.1-0.2-0.2-0.2c-0.1,0-0.1,0-0.1,0.1L3.6,9.5
			c0,0-0.1,0.1-0.1,0.1c0,0.1,0.1,0.2,0.2,0.2c0.1,0,0.1,0,0.1-0.1l4.7-4.7C8.6,5,8.6,5,8.6,4.9z M8.1,3.2l3.6,3.6l-7.2,7.2H0.9v-3.6
			L8.1,3.2z M14.1,4.1c0,0.3-0.1,0.6-0.3,0.8l-1.4,1.4L8.7,2.7l1.4-1.4c0.2-0.2,0.5-0.3,0.8-0.3c0.3,0,0.6,0.1,0.8,0.3l2,2
			C14,3.5,14.1,3.8,14.1,4.1z"/>
	</svg>

	<svg id="icon-eye-on" viewBox="0 0 15 15">
		<style type="text/css">
			.st0{fill:#333;}
		</style>
		<path class="st0" d="M14,7.3c-1.1-2.3-4.4-4.1-6.7-4.1c-2.4,0-4.8,1.5-6.2,4C1,7.3,1,7.5,1.1,7.7c1,2,3.6,4.1,6.4,4.1c2.5,0,4.9-1.5,6.4-4
			C14,7.6,14,7.4,14,7.3z M7.4,4.8c0.2,0,0.4,0.2,0.4,0.4c0,0.2-0.2,0.4-0.4,0.4c-0.6,0-1.2,0.5-1.2,1.2c0,0.2-0.2,0.4-0.4,0.4
			c-0.2,0-0.4-0.2-0.4-0.4C5.3,5.7,6.2,4.8,7.4,4.8z M7.5,10.7c-2.3,0-4.5-1.6-5.4-3.3C2.9,6.3,3.9,5.3,5,4.8
			C4.5,5.3,4.2,6.1,4.2,6.9c0,1.8,1.4,3.2,3.2,3.2c1.8,0,3.2-1.4,3.2-3.2c0-0.8-0.3-1.5-0.7-2c1.2,0.6,2.4,1.5,3,2.6
			C11.5,9.5,9.5,10.7,7.5,10.7z"/>
	</svg>

	<svg id="icon-eye-off" viewBox="0 0 15 15">
		<style type="text/css">
			.st0{fill:#333;}
		</style>
		<path class="st0" d="M10.6,7c0-0.2,0-0.4-0.1-0.6l-2,3.6C9.7,9.5,10.6,8.3,10.6,7z"/>
		<path class="st0" d="M13.9,7.3c-0.5-1-1.4-1.9-2.5-2.6L11,5.6c0.8,0.5,1.5,1.2,1.9,1.9c-1.2,1.9-3,3-4.8,3.2l-0.6,1.1c2.5,0,4.8-1.5,6.4-4
			C14,7.7,14,7.5,13.9,7.3z"/>
		<path class="st0" d="M9.9,4.9C9.9,4.9,9.9,4.9,9.9,4.9l1-1.9c0,0,0-0.1,0-0.1c0,0,0-0.1-0.1-0.1L9.7,2.2c-0.1,0-0.1,0-0.2,0L8.8,3.5
			C8.3,3.3,7.8,3.3,7.3,3.3c-2.4,0-4.8,1.5-6.2,4C1,7.4,1,7.6,1,7.7C1.7,9,3,10.3,4.6,11.1l-0.5,0.8c0,0,0,0.1,0,0.1
			c0,0,0,0.1,0.1,0.1l1.2,0.7c0,0,0,0,0.1,0c0,0,0.1,0,0.1-0.1L9.9,4.9C9.9,4.9,9.9,4.9,9.9,4.9z M5.1,10.2c-1.3-0.6-2.4-1.7-3-2.7
			C2.9,6.3,3.9,5.4,5,4.8C4.5,5.4,4.2,6.1,4.2,7c0,1,0.5,2,1.3,2.5L5.1,10.2z M7.4,5.8c-0.6,0-1.2,0.5-1.2,1.2c0,0.2-0.2,0.4-0.4,0.4
			c-0.2,0-0.4-0.2-0.4-0.4c0-1.1,0.9-2,2-2c0.2,0,0.4,0.2,0.4,0.4C7.8,5.6,7.6,5.8,7.4,5.8z"/>
	</svg>

	<svg id="icon-pipette" viewBox="0 0 15 15">
		<style type="text/css">
			.st0{fill:#333;}
		</style>
		<path class="st0" d="M13.6,1.4c-0.6-0.6-1.6-0.6-2.2,0L9.3,3.5L7.8,2.1L6.2,3.7L7.5,5l-5.7,5.7c-0.1,0.1-0.1,0.2-0.1,0.4h0L1,13.6
			C1,13.8,1.2,14,1.4,14l2.6-0.6c0,0,0,0,0,0c0.1,0,0.2,0,0.3-0.1L10,7.5l1.3,1.3l1.6-1.6l-1.5-1.5l2.1-2.1C14.2,3,14.2,2,13.6,1.4z
			 M4.3,12l-0.7-0.6L3,10.7l5.1-5.1l1.3,1.3L4.3,12z"/>
	</svg>

	<svg id="icon-mountain" viewBox="0 0 17 17">
		<style type="text/css">
			.st0{fill:#333;}
		</style>
		<polygon class="st0" points="10.5,4.4 7.7,7.2 5.6,5.5 0,11 0.4,12 16.6,12 17,10.9 "/>
	</svg>

	<svg id="icon-mountain-mini" viewBox="0 0 17 17">
		<style type="text/css">
			.st0{fill:#333;}
		</style>
		<polygon class="st0" points="9.8,6 8,7.9 6.6,6.7 2.9,10.3 3.2,11 13.8,11 14.1,10.2 "/>
	</svg>

	<svg id="icon-box-arrow-left" viewBox="0 0 13 19">
		<style type="text/css">
			.st0{fill:#3a3a3a;}
			.st1{fill:#ffffff39;}
		</style>
		<polyline class="st0" points="13,16.7 2.7,9.9 13,2.2 "/>
		<path class="st1" d="M0.4,10.8C0.2,10.6,0,10.3,0,10c0-0.3,0.1-0.6,0.4-0.8l10.6-8v2.5L2.7,9.9l8.3,5.5v2.4L0.4,10.8z"/>
	</svg>

	<svg id="knob" viewBox="0 0 34 1734">
		<filter id="DS_1" x="-40%" y="-40%" width="180%" height="180%">
			<feDropShadow dx="0" dy="0" stdDeviation="1.5" flood-color="#f90" flood-opacity="1" />
		</filter>
		<style type="text/css">
			.st0{fill:none;stroke:#f90;stroke-width:2.5;stroke-linecap:round;filter:url(#DS_1);}
			.st1{fill:none;stroke:#444;stroke-width:2.5;stroke-linecap:round;}
		</style>
		<path class="st0" d="M7.1,60.9c0.4,0.4,0.7,0.7,1.1,1"/>
		<path class="st0" d="M6.2,94c0.6,0.7,1.2,1.4,2,1.9"/>
		<path class="st0" d="M5.4,126.9c0.8,1.2,1.7,2.2,2.8,3"/>
		<path class="st0" d="M4.7,159.7c0.9,1.6,2.1,3.1,3.5,4.2"/>
		<path class="st0" d="M4.1,192.5c0.9,2.2,2.3,4,4.1,5.5"/>
		<path class="st0" d="M3.6,225.1c0.8,2.7,2.5,5.1,4.6,6.8"/>
		<path class="st0" d="M3.3,257.8c0.7,3.3,2.5,6.1,4.9,8.1"/>
		<path class="st0" d="M3.1,290.5c0.4,3.8,2.4,7.2,5.1,9.4"/>
		<path class="st0" d="M3,323c0,4.4,2.1,8.4,5.2,10.9"/>
		<path class="st0" d="M3.1,355.7c0,0.4-0.1,0.9-0.1,1.3c0,4.4,2.1,8.4,5.2,10.9"/>
		<path class="st0" d="M3.3,388.3C3.1,389.2,3,390.1,3,391c0,4.4,2.1,8.4,5.2,10.9"/>
		<path class="st0" d="M3.6,421c-0.4,1.3-0.6,2.6-0.6,4c0,4.4,2.1,8.4,5.2,10.9"/>
		<path class="st0" d="M4,453.7c-0.7,1.6-1,3.4-1,5.3c0,4.4,2.1,8.4,5.2,10.9"/>
		<path class="st0" d="M4.6,486.5c-1,2-1.6,4.2-1.6,6.5c0,4.4,2.1,8.4,5.2,10.9"/>
		<path class="st0" d="M5.3,519.3C3.9,521.5,3,524.2,3,527c0,4.4,2.1,8.4,5.2,10.9"/>
		<path class="st0" d="M6.3,552.2c-2,2.4-3.2,5.5-3.2,8.8c0,4.4,2.1,8.4,5.2,10.9"/>
		<path class="st0" d="M7.2,585.2c-2.5,2.5-4.1,6-4.1,9.9c0,4.4,2.1,8.4,5.2,10.9"/>
		<path class="st0" d="M8.3,618.2c-3.1,2.6-5.1,6.5-5.1,10.8c0,4.4,2.1,8.4,5.2,10.9"/>
		<path class="st0" d="M9.4,651.4c-3.7,2.5-6.2,6.8-6.2,11.6c0,4.4,2.1,8.4,5.2,10.9"/>
		<path class="st0" d="M10.5,684.7c-4.4,2.4-7.4,7-7.4,12.3c0,4.4,2.1,8.4,5.2,10.9"/>
		<path class="st0" d="M11.8,718.1c-5,2.1-8.6,7.1-8.6,12.9c0,4.4,2.1,8.4,5.2,10.9"/>
		<path class="st0" d="M13.1,751.6c-5.7,1.8-9.9,7.1-9.9,13.4c0,4.4,2.1,8.4,5.2,10.9"/>
		<path class="st0" d="M14.4,785.3c-6.4,1.3-11.2,7-11.2,13.7c0,4.4,2.1,8.4,5.2,10.9"/>
		<path class="st0" d="M15.8,819.1c-7.1,0.7-12.6,6.7-12.6,13.9c0,4.4,2.1,8.4,5.2,10.9"/>
		<path class="st0" d="M17.2,853C17.1,853,17.1,853,17.2,853c-7.7,0-14,6.3-14,14c0,4.4,2.1,8.4,5.2,10.9"/>
		<path class="st0" d="M18.5,887.1c-0.4,0-0.9-0.1-1.4-0.1c-7.7,0-14,6.3-14,14c0,4.4,2.1,8.4,5.2,10.9"/>
		<path class="st0" d="M19.9,921.3c-0.9-0.2-1.8-0.3-2.7-0.3c-7.7,0-14,6.3-14,14c0,4.4,2.1,8.4,5.2,10.9"/>
		<path class="st0" d="M21.2,955.6c-1.3-0.4-2.6-0.6-4.1-0.6c-7.7,0-14,6.3-14,14c0,4.4,2.1,8.4,5.2,10.9"/>
		<path class="st0" d="M22.5,990.1c-1.7-0.7-3.5-1.1-5.3-1.1c-7.7,0-14,6.3-14,14c0,4.4,2.1,8.4,5.2,10.9"/>
		<path class="st0" d="M23.8,1024.7c-2-1.1-4.3-1.7-6.7-1.7c-7.7,0-14,6.3-14,14c0,4.4,2.1,8.4,5.2,10.9"/>
		<path class="st0" d="M24.9,1059.4c-2.2-1.5-4.9-2.4-7.8-2.4c-7.7,0-14,6.3-14,14c0,4.4,2.1,8.4,5.2,10.9"/>
		<path class="st0" d="M25.9,1094.2c-2.4-2-5.5-3.2-8.9-3.2c-7.7,0-14,6.3-14,14c0,4.4,2.1,8.4,5.2,10.9"/>
		<path class="st0" d="M26.9,1129.1c-2.5-2.5-6-4.1-9.9-4.1c-7.7,0-14,6.3-14,14c0,4.4,2.1,8.4,5.2,10.9"/>
		<path class="st0" d="M27.8,1164.2c-2.6-3.1-6.5-5.1-10.8-5.1c-7.7,0-14,6.3-14,14c0,4.4,2.1,8.4,5.2,10.9"/>
		<path class="st0" d="M28.6,1199.2c-2.5-3.8-6.8-6.2-11.6-6.2c-7.7,0-14,6.3-14,14c0,4.4,2.1,8.4,5.2,10.9"/>
		<path class="st0" d="M29.3,1234.4c-2.4-4.4-7-7.4-12.3-7.4c-7.7,0-14,6.3-14,14c0,4.4,2.1,8.4,5.2,10.9"/>
		<path class="st0" d="M30.1,1269.7c-2.1-5.1-7.1-8.7-12.9-8.7c-7.7,0-14,6.3-14,14c0,4.4,2.1,8.4,5.2,10.9"/>
		<path class="st0" d="M30.6,1305c-1.7-5.7-7.1-10-13.4-10c-7.7,0-14,6.3-14,14c0,4.4,2.1,8.4,5.2,10.9"/>
		<path class="st0" d="M30.9,1340.3c-1.3-6.4-7-11.3-13.7-11.3c-7.7,0-14,6.3-14,14c0,4.4,2.1,8.4,5.2,10.9"/>
		<path class="st0" d="M31.1,1375.7c-0.7-7.1-6.7-12.7-13.9-12.7c-7.7,0-14,6.3-14,14c0,4.4,2.1,8.4,5.2,10.9"/>
		<path class="st0" d="M31.2,1411c0-7.7-6.3-14-14-14s-14,6.3-14,14c0,4.4,2.1,8.4,5.2,10.9"/>
		<path class="st0" d="M31.1,1446.4c0-0.5,0.1-0.9,0.1-1.4c0-7.7-6.3-14-14-14s-14,6.3-14,14c0,4.4,2.1,8.4,5.2,10.9"/>
		<path class="st0" d="M30.9,1481.8c0.2-0.9,0.3-1.8,0.3-2.8c0-7.7-6.3-14-14-14s-14,6.3-14,14c0,4.4,2.1,8.4,5.2,10.9"/>
		<path class="st0" d="M30.5,1517.1c0.4-1.3,0.6-2.7,0.6-4.1c0-7.7-6.3-14-14-14s-14,6.3-14,14c0,4.4,2.1,8.4,5.2,10.9"/>
		<path class="st0" d="M30.1,1552.4c0.7-1.7,1.1-3.5,1.1-5.4c0-7.7-6.3-14-14-14s-14,6.3-14,14c0,4.4,2.1,8.4,5.2,10.9"/>
		<path class="st0" d="M29.5,1587.7c1.1-2,1.7-4.3,1.7-6.6c0-7.7-6.3-14-14-14s-14,6.3-14,14c0,4.4,2.1,8.4,5.2,10.9"/>
		<path class="st0" d="M28.8,1622.8c1.5-2.2,2.4-4.9,2.4-7.8c0-7.7-6.3-14-14-14s-14,6.3-14,14c0,4.4,2.1,8.4,5.2,10.9"/>
		<path class="st0" d="M27.9,1657.9c2-2.4,3.2-5.6,3.2-8.9c0-7.7-6.3-14-14-14s-14,6.3-14,14c0,4.4,2.1,8.4,5.2,10.9"/>
		<path class="st0" d="M27,1693c2.5-2.5,4.1-6.1,4.1-10c0-7.7-6.3-14-14-14s-14,6.3-14,14c0,4.4,2.1,8.4,5.2,10.9"/>
		<path class="st0" d="M26,1727.9c3.1-2.5,5.2-6.5,5.2-10.9c0-7.7-6.3-14-14-14s-14,6.3-14,14c0,4.4,2.1,8.4,5.2,10.9"/>
		<path class="st1" d="M25.8,27.9C28.9,25.4,31,21.4,31,17c0-7.7-6.3-14-14-14S3,9.3,3,17c0,4.4,2.1,8.4,5.2,10.9L17,17"/>
		<path class="st1" d="M25.8,61.9c2.8-2.2,4.8-5.6,5.1-9.5c0.8-7.7-4.9-14.6-12.6-15.3S3.8,42,3.1,49.7C2.6,54,4.3,58.2,7.2,61L17,51" />
		<path class="st1" d="M25.8,95.9c2.4-2,4.3-4.8,4.9-8.2c1.5-7.6-3.4-15-11-16.5s-15,3.4-16.5,11c-0.9,4.3,0.4,8.6,3,11.7L17,85"/>
		<path class="st1" d="M25.8,129.9c2.1-1.7,3.8-4,4.6-6.8c2.2-7.4-2-15.2-9.3-17.5c-7.4-2.2-15.2,2-17.5,9.3 c-1.3,4.2-0.4,8.6,1.8,11.9L17,119"/>
		<path class="st1" d="M25.8,163.9c1.8-1.4,3.2-3.3,4.1-5.5c3-7.1-0.4-15.3-7.6-18.3S7,140.5,4.1,147.6c-1.7,4.1-1.3,8.6,0.6,12.1 L17,153"/>
		<path class="st1" d="M25.8,197.9c1.4-1.1,2.6-2.6,3.5-4.3c3.6-6.8,1.1-15.3-5.7-19s-15.3-1.1-19,5.7c-2.1,3.9-2.1,8.4-0.6,12.1 l13-5.4"/>
		<path class="st1" d="M25.8,231.9c1.1-0.9,2-1.9,2.8-3.1c4.3-6.4,2.6-15.1-3.8-19.4s-15.1-2.6-19.4,3.8c-2.5,3.7-2.9,8.1-1.8,11.9 L17,221"/>
		<path class="st1" d="M25.8,265.9c0.7-0.6,1.4-1.2,2-2c4.9-5.9,4-14.8-1.9-19.7s-14.8-4-19.7,1.9c-2.8,3.4-3.7,7.8-2.9,11.7L17,255" />
		<path class="st1" d="M25.8,299.9c0.4-0.3,0.7-0.6,1.1-1c5.5-5.4,5.5-14.3,0-19.8c-5.4-5.5-14.3-5.5-19.8,0 c-3.1,3.1-4.5,7.4-4.1,11.4l14-1.5"/>
		<path class="st1" d="M25.8,334l0.1-0.1c6-4.9,6.9-13.7,2-19.7s-13.7-6.9-19.7-2C4.7,315,3,319.1,3,323.1l14-0.1"/>
		<path class="st1" d="M25.7,367.9c5.5-4.5,6.9-12.6,2.9-18.6c-4.3-6.4-13-8.2-19.4-3.9c-3.7,2.4-5.8,6.4-6.2,10.4l14,1.2"/>
		<path class="st1" d="M25.8,401.9c5.1-4.1,6.8-11.5,3.6-17.5c-3.6-6.8-12.1-9.4-18.9-5.8c-3.9,2.1-6.4,5.8-7.2,9.7L17,391"/>
		<path class="st1" d="M25.8,435.9c4.7-3.8,6.6-10.4,4.2-16.2c-2.9-7.1-11.1-10.6-18.3-7.6c-4.1,1.7-7,5.1-8.1,8.9l13.4,4"/>
		<path class="st1" d="M25.8,469.9c4.3-3.5,6.3-9.3,4.6-14.9c-2.2-7.4-10.1-11.6-17.4-9.4c-4.2,1.3-7.4,4.4-8.9,8.1l13,5.3"/>
		<path class="st1" d="M25.8,503.9c3.9-3.2,6-8.3,5-13.6c-1.5-7.6-8.9-12.5-16.4-11.1c-4.3,0.8-7.8,3.7-9.7,7.2L17,493"/>
		<path class="st1" d="M25.8,537.9c3.5-2.9,5.6-7.4,5.2-12.2c-0.7-7.7-7.6-13.3-15.3-12.6c-4.4,0.4-8.2,2.9-10.4,6.2L17,527"/>
		<path class="st1" d="M25.9,571.9c3.2-2.6,5.2-6.5,5.2-10.8c0-7.7-6.2-14-13.9-14.1c-4.4,0-8.4,2.1-10.9,5.2l10.9,8.8"/>
		<path class="st1" d="M25.9,605.9c2.8-2.3,4.7-5.6,5.1-9.4c0.8-7.7-4.8-14.6-12.5-15.4c-4.4-0.5-8.6,1.2-11.4,4.1l9.9,9.9"/>
		<path class="st1" d="M25.9,639.9c2.5-2,4.3-4.8,4.9-8.1c1.5-7.5-3.4-15-10.9-16.5c-4.3-0.9-8.7,0.4-11.7,2.9l8.9,10.8"/>
		<path class="st1" d="M25.9,673.9c2.1-1.7,3.7-4,4.6-6.8c2.3-7.4-1.9-15.2-9.2-17.5c-4.2-1.3-8.6-0.5-11.9,1.8l7.8,11.6"/>
		<path class="st1" d="M25.9,707.9c1.8-1.4,3.2-3.3,4.1-5.5c3-7.1-0.4-15.3-7.5-18.3c-4.1-1.7-8.6-1.3-12.1,0.6L17,697"/>
		<path class="st1" d="M25.9,742c1.4-1.1,2.6-2.6,3.6-4.3c3.7-6.8,1.1-15.3-5.6-19c-3.9-2.1-8.4-2.2-12.1-0.6l5.4,12.9"/>
		<path class="st1" d="M25.9,775.9c1.1-0.9,2-1.9,2.8-3.1c4.3-6.4,2.6-15.1-3.8-19.4c-3.6-2.5-8.1-3-11.9-1.8l4.1,13.4"/>
		<path class="st1" d="M26,809.9c0.7-0.6,1.4-1.2,2-1.9c4.9-5.9,4.1-14.8-1.8-19.7c-3.4-2.8-7.8-3.8-11.7-3l2.8,13.7"/>
		<path class="st1" d="M25.9,843.9c0.4-0.3,0.7-0.6,1.1-1c5.5-5.4,5.5-14.3,0.1-19.8c-3.1-3.1-7.4-4.5-11.4-4.1l1.4,13.9"/>
		<path class="st1" d="M26,877.9c6-4.8,6.9-13.7,2.1-19.7c-2.8-3.4-6.9-5.2-10.9-5.2v14"/>
		<path class="st1" d="M26,911.9c5.5-4.5,6.9-12.5,2.9-18.6c-2.4-3.7-6.4-5.9-10.3-6.2L17.2,901"/>
		<path class="st1" d="M26,945.9c5.1-4.1,6.7-11.4,3.6-17.4c-2-3.9-5.8-6.5-9.7-7.2L17.2,935"/>
		<path class="st1" d="M26,979.9c4.7-3.8,6.5-10.3,4.2-16.2c-1.7-4.1-5.1-7-8.9-8.1L17.2,969"/>
		<path class="st1" d="M26,1013.9c4.3-3.5,6.3-9.3,4.6-14.9c-1.2-4.2-4.4-7.5-8.1-9l-5.4,12.9"/>
		<path class="st1" d="M26,1047.9c3.9-3.1,6-8.3,5-13.5c-0.8-4.3-3.6-7.9-7.2-9.7l-6.6,12.4"/>
		<path class="st1" d="M26,1081.9c3.5-2.8,5.6-7.3,5.2-12.1c-0.4-4.4-2.8-8.2-6.2-10.4l-7.8,11.6"/>
		<path class="st1" d="M25.8,1115.9c3.1-2.5,5.2-6.4,5.2-10.8s-2-8.4-5.1-10.9L17,1105"/>
		<path class="st1" d="M25.8,1149.9c2.8-2.3,4.7-5.6,5.1-9.4c0.5-4.4-1.2-8.6-4-11.4L17,1139"/>
		<path class="st1" d="M25.8,1183.9c2.5-2,4.3-4.8,5-8.1c0.9-4.3-0.3-8.7-2.9-11.7L17,1173"/>
		<path class="st1" d="M25.8,1217.9c2.1-1.7,3.7-4,4.6-6.7c1.3-4.2,0.5-8.6-1.7-12L17,1207"/>
		<path class="st1" d="M25.8,1251.9c1.7-1.4,3.2-3.2,4.1-5.4c1.7-4,1.4-8.6-0.5-12.1L17,1241"/>
		<path class="st1" d="M26,1285.9c1.4-1.1,2.6-2.5,3.5-4.2c2.1-3.9,2.2-8.4,0.7-12.1l-13,5.3"/>
		<path class="st1" d="M26,1319.9c1-0.8,2-1.8,2.8-3c2.5-3.6,3-8.1,1.9-11.9l-13.4,4"/>
		<path class="st1" d="M26,1353.9c0.7-0.6,1.3-1.2,1.9-1.9c2.8-3.4,3.8-7.8,3-11.7l-13.7,2.7"/>
		<path class="st1" d="M26,1387.9c0.3-0.3,0.7-0.6,1-0.9c3.1-3.1,4.5-7.4,4.1-11.3l-13.9,1.3"/>
		<path class="st1" d="M25.9,1421.9c3.4-2.8,5.2-6.9,5.2-10.9h-14"/>
		<path class="st1" d="M26,1455.9c3-2.4,4.8-5.9,5.1-9.5l-13.9-1.4"/>
		<path class="st1" d="M26,1489.9c2.6-2.1,4.3-5,4.9-8.1l-13.7-2.8"/>
		<path class="st1" d="M26,1523.9c2.2-1.8,3.8-4.2,4.6-6.8l-13.4-4.1"/>
		<path class="st1" d="M26,1557.9c1.8-1.5,3.3-3.4,4.1-5.5l-12.9-5.4"/>
		<path class="st1" d="M26,1591.9c1.5-1.2,2.7-2.6,3.5-4.2l-12.3-6.7"/>
		<path class="st1" d="M26,1625.9c1.1-0.9,2.1-1.9,2.8-3.1l-11.6-7.8"/>
		<path class="st1" d="M26,1659.9c0.7-0.6,1.4-1.2,2-2l-10.8-8.9"/>
		<path class="st1" d="M26,1693.9c0.4-0.3,0.7-0.6,1.1-0.9l-9.9-10"/>
		<path class="st1" d="M26,1727.9l-8.8-10.9"/>
	</svg>

</svg>