<svg xmlns="http://www.w3.org/2000/svg" width="0" height="0">

	<svg id="icon-chevron-left" viewBox="0 0 13 13">
		<style type="text/css">
			.st0{fill:#333;}
		</style>
		<polygon class="st0" points="9.2,1.6 8.5,0.8 3.5,5.8 3.5,5.8 2.8,6.5 3.5,7.2 8.5,12.2 9.2,11.4 4.2,6.5 "/>
	</svg>

	<svg id="icon-chevron-right" viewBox="0 0 13 13">
		<style type="text/css">
			.st0{fill:#333;}
		</style>
		<polygon class="st0" points="2.8,11.4 3.5,12.2 8.5,7.2 8.5,7.2 9.2,6.5 8.5,5.8 3.5,0.8 2.8,1.6 7.8,6.5 "/>
	</svg>

	<svg id="icon-gear" viewBox="0 0 13 13">
		<style type="text/css">
			.st0{fill:#333;}
		</style>
		<path class="st0" d="M10.6,7c0-0.2,0-0.3,0-0.5c0-0.2,0-0.4,0-0.5l1.2-0.9c0.1-0.1,0.1-0.2,0.1-0.3l-1.1-1.9c-0.1-0.1-0.2-0.2-0.3-0.1L9,3.2
			C8.7,3,8.4,2.8,8.1,2.7L7.9,1.2C7.8,1.1,7.7,1,7.6,1H5.4C5.3,1,5.2,1.1,5.1,1.2L4.9,2.7C4.6,2.8,4.3,3,4,3.2L2.6,2.7
			c-0.1,0-0.3,0-0.3,0.1L1.2,4.7C1.1,4.8,1.2,5,1.3,5.1L2.4,6c0,0.2-0.1,0.4-0.1,0.5s0,0.4,0,0.5L1.3,7.9C1.2,8,1.1,8.2,1.2,8.3
			l1.1,1.9c0.1,0.1,0.2,0.2,0.3,0.1L4,9.8c0.3,0.2,0.6,0.4,0.9,0.5l0.2,1.5c0,0.1,0.1,0.2,0.3,0.2h2.2c0.1,0,0.3-0.1,0.3-0.2l0.2-1.5
			C8.4,10.2,8.7,10,9,9.8l1.4,0.5c0.1,0,0.3,0,0.3-0.1l1.1-1.9c0.1-0.1,0-0.3-0.1-0.3L10.6,7z M6.5,8.9c-1.3,0-2.4-1.1-2.4-2.4
			s1.1-2.4,2.4-2.4s2.4,1.1,2.4,2.4S7.8,8.9,6.5,8.9z"/>
	</svg>
	
	<svg id="negative-corner" viewBox="0 0 6 6">
		<path fill="#454545" d="M0,6h6V0C6,3.3,3.3,6,0,6z"/>
	</svg>

	<svg id="icon-folder-open" viewBox="0 0 17 17">
		<style type="text/css">
			.st0{fill:#333;}
		</style>
		<path class="st0" d="M16,9.5c0,0.2-0.1,0.4-0.2,0.5L13.1,13c-0.5,0.5-1.4,1-2.1,1H2.3c-0.3,0-0.7-0.1-0.7-0.4c0-0.2,0.1-0.4,0.2-0.5L4.5,10
			C5,9.4,5.9,9,6.6,9h8.7C15.6,9,16,9.1,16,9.5z M13.2,6.4V8H6.6c-1,0-2.2,0.6-2.9,1.3L1,12.4c0-0.1,0-0.1,0-0.2l0-7.7
			C1,3.5,1.3,3,2.3,3h3.5c1,0,1.4,0.3,1.4,1.3V5h4.7C12.8,5,13.2,5.4,13.2,6.4z"/>
	</svg>

	<svg id="icon-clipboard" viewBox="0 0 17 17">
		<style type="text/css">
			.st0{fill:#333;}
		</style>
		<path class="st0" d="M14.6,2.9h-4.2c0-1-0.8-1.9-1.9-1.9S6.6,1.8,6.6,2.9H2.4c-0.3,0-0.5,0.2-0.5,0.5v12.2c0,0.3,0.2,0.5,0.5,0.5h12.2
			c0.3,0,0.5-0.2,0.5-0.5V3.3C15.1,3.1,14.9,2.9,14.6,2.9z M8.5,1.9c0.5,0,0.9,0.4,0.9,0.9S9,3.8,8.5,3.8S7.6,3.4,7.6,2.9
			S8,1.9,8.5,1.9z M14,15H3V4h1.7v1.5C4.7,5.8,5,6,5.2,6h6.6c0.3,0,0.5-0.2,0.5-0.5V4H14V15z"/>
		<path class="st0" d="M7.6,13.6l-3-3.5l0.9-0.9l2.2,1.7l4-3.6l0.9,0.9L7.6,13.6z"/>
	</svg>

	<svg id="icon-paint" viewBox="0 0 15 15">
		<style type="text/css">
			.st0{fill:#777;}
		</style>
		<path class="st0" d="M5.3,5.3c0,0.7-0.6,1.3-1.3,1.3S2.7,6.1,2.7,5.3S3.3,4,4,4S5.3,4.6,5.3,5.3z M12.3,7.9v3H2.7V9.7l2.2-2.2L6,8.6l3.5-3.5
			L12.3,7.9z M12.8,3L2.2,3C2.1,3,2,3.1,2,3.2v8.5C2,11.9,2.1,12,2.2,12l10.6,0c0.1,0,0.2-0.1,0.2-0.2V3.2C13,3.1,12.9,3,12.8,3z
			 M14,3.1l0,8.9c0,0.6-0.5,1-1.1,1H2.1c-0.6,0-1.1-0.4-1.1-1l0-8.9C1,2.5,1.5,2,2.1,2h10.8C13.5,2,14,2.5,14,3.1z"/>
	</svg>

	<svg id="icon-preview" viewBox="0 0 15 15">
		<style type="text/css">
			.st0{fill:#777;}
		</style>
		<path class="st0" d="M5.5,9.9l4.9-2.5L5.5,4.8V9.9z M7.5,2.9c2.7,0,4.5,0.1,4.5,0.1c0.3,0,0.8,0,1.3,0.6c0,0,0.4,0.4,0.5,1.3C14,6,14,7,14,7v1
			c0,0,0,1.1-0.1,2.1c-0.1,0.9-0.5,1.3-0.5,1.3c-0.5,0.5-1.1,0.5-1.3,0.5c0,0-1.8,0.1-4.5,0.1l0,0c-3.4,0-4.4-0.1-4.4-0.1
			c-0.3-0.1-0.9,0-1.4-0.6c0,0-0.4-0.4-0.5-1.3C1,9,1,8,1,8V7C1,7,1,6,1.1,4.9C1.3,4,1.7,3.6,1.7,3.6C2.1,3.1,2.7,3.1,3,3.1
			C3,3.1,4.8,2.9,7.5,2.9L7.5,2.9z"/>
	</svg>

	<svg id="icon-code" viewBox="0 0 15 15">
		<style type="text/css">
			.st0{fill:#777;}
		</style>
		<path class="st0" d="M8.9,11.5v1c0,0.3-0.2,0.5-0.5,0.5h-7C1.2,13,1,12.8,1,12.5v-1C1,11.2,1.2,11,1.5,11h7C8.7,11,8.9,11.2,8.9,11.5z M11.2,8.5
			v1c0,0.3-0.2,0.5-0.5,0.5H1.5C1.2,10,1,9.8,1,9.5v-1C1,8.2,1.2,8,1.5,8h9.3C11,8,11.2,8.2,11.2,8.5z M13,5.5v1C13,6.8,12.8,7,12.6,7
			H1.5C1.2,7,1,6.8,1,6.5v-1C1,5.2,1.2,5,1.5,5h11.1C12.8,5,13,5.2,13,5.5z M11.1,2.5v1c0,0.3-0.2,0.5-0.5,0.5H1.5C1.2,4,1,3.8,1,3.5
			v-1C1,2.2,1.2,2,1.5,2h9.2C10.9,2,11.1,2.2,11.1,2.5z"/>
	</svg>

	<svg id="icon-sort" viewBox="0 0 15 15">
		<style type="text/css">
			.st0{fill:#777;}
		</style>
		<polygon class="st0" points="5,6 10,6 7.5,2.3 "/>
		<polygon class="st0" points="10,9 5,9 7.5,12.7 "/>
	</svg>

	<svg id="icon-zoom" viewBox="0 0 15 15">
		<style type="text/css">
			.st0{fill:#777;}
		</style>
		<path class="st0" d="M12.6,11.4l-2.6-2.2C9.8,9,9.5,8.8,9.3,8.8c0.6-0.7,0.9-1.7,0.9-2.6C10.2,3.9,8.4,2,6.1,2S2,3.9,2,6.1
			s1.8,4.1,4.1,4.1c1,0,2-0.4,2.6-0.9c0,0.2,0.1,0.5,0.4,0.8l2.2,2.6c0.4,0.4,1,0.4,1.4,0.1C13.1,12.3,13.1,11.7,12.6,11.4L12.6,11.4z
			 M6.1,8.9c-1.5,0-2.7-1.2-2.7-2.7s1.2-2.7,2.7-2.7c1.5,0,2.7,1.2,2.7,2.7S7.7,8.9,6.1,8.9z"/>
	</svg>

	<svg id="icon-new" viewBox="0 0 15 15">
		<style type="text/css">
			.st0{fill:#777;}
		</style>
		<polygon class="st0" points="3,2 3,13 12,13 12,6.2 7.8,6.2 7.8,2 "/>
		<polygon class="st0" points="8.5,5.7 11.9,5.7 8.5,2.1 "/>
	</svg>

	<svg id="icon-trashcan" viewBox="0 0 15 15">
		<style type="text/css">
			.st0{fill:#777;}
		</style>
		<polygon class="st0" points="4,4 11,4 11,3 8.3,3 8.3,2 6.7,2 6.7,3 4,3 "/>
		<path class="st0" d="M3.4,5l0,1h0.8l0.3,7h6.1l0.3-7h0.8l0-1H3.4L3.4,5z M6.1,11.3H5.5L5.4,6.6h0.8L6.1,11.3L6.1,11.3z M7.8,11.3
			H7.2V6.6h0.6V11.3z M9.5,11.3H8.9V6.6h0.8L9.5,11.3z"/>
	</svg>

	<svg id="icon-eye-on" viewBox="0 0 15 15">
		<style type="text/css">
			.st0{fill:#333;}
		</style>
		<path class="st0" d="M14,7.3c-1.1-2.3-4.4-4.1-6.7-4.1c-2.4,0-4.8,1.5-6.2,4C1,7.3,1,7.5,1.1,7.7c1,2,3.6,4.1,6.4,4.1c2.5,0,4.9-1.5,6.4-4
			C14,7.6,14,7.4,14,7.3z M7.4,4.8c0.2,0,0.4,0.2,0.4,0.4c0,0.2-0.2,0.4-0.4,0.4c-0.6,0-1.2,0.5-1.2,1.2c0,0.2-0.2,0.4-0.4,0.4
			c-0.2,0-0.4-0.2-0.4-0.4C5.3,5.7,6.2,4.8,7.4,4.8z M7.5,10.7c-2.3,0-4.5-1.6-5.4-3.3C2.9,6.3,3.9,5.3,5,4.8
			C4.5,5.3,4.2,6.1,4.2,6.9c0,1.8,1.4,3.2,3.2,3.2c1.8,0,3.2-1.4,3.2-3.2c0-0.8-0.3-1.5-0.7-2c1.2,0.6,2.4,1.5,3,2.6
			C11.5,9.5,9.5,10.7,7.5,10.7z"/>
	</svg>

	<svg id="icon-eye-off" viewBox="0 0 15 15">
		<style type="text/css">
			.st0{fill:#333;}
		</style>
		<path class="st0" d="M10.6,7c0-0.2,0-0.4-0.1-0.6l-2,3.6C9.7,9.5,10.6,8.3,10.6,7z"/>
		<path class="st0" d="M13.9,7.3c-0.5-1-1.4-1.9-2.5-2.6L11,5.6c0.8,0.5,1.5,1.2,1.9,1.9c-1.2,1.9-3,3-4.8,3.2l-0.6,1.1c2.5,0,4.8-1.5,6.4-4
			C14,7.7,14,7.5,13.9,7.3z"/>
		<path class="st0" d="M9.9,4.9C9.9,4.9,9.9,4.9,9.9,4.9l1-1.9c0,0,0-0.1,0-0.1c0,0,0-0.1-0.1-0.1L9.7,2.2c-0.1,0-0.1,0-0.2,0L8.8,3.5
			C8.3,3.3,7.8,3.3,7.3,3.3c-2.4,0-4.8,1.5-6.2,4C1,7.4,1,7.6,1,7.7C1.7,9,3,10.3,4.6,11.1l-0.5,0.8c0,0,0,0.1,0,0.1
			c0,0,0,0.1,0.1,0.1l1.2,0.7c0,0,0,0,0.1,0c0,0,0.1,0,0.1-0.1L9.9,4.9C9.9,4.9,9.9,4.9,9.9,4.9z M5.1,10.2c-1.3-0.6-2.4-1.7-3-2.7
			C2.9,6.3,3.9,5.4,5,4.8C4.5,5.4,4.2,6.1,4.2,7c0,1,0.5,2,1.3,2.5L5.1,10.2z M7.4,5.8c-0.6,0-1.2,0.5-1.2,1.2c0,0.2-0.2,0.4-0.4,0.4
			c-0.2,0-0.4-0.2-0.4-0.4c0-1.1,0.9-2,2-2c0.2,0,0.4,0.2,0.4,0.4C7.8,5.6,7.6,5.8,7.4,5.8z"/>
	</svg>

</svg>