<svg xmlns="http://www.w3.org/2000/svg" width="0" height="0">

	<svg id="icon-chevron-left" viewBox="0 0 13 13">
		<style type="text/css">
			.st0{fill:#333;}
		</style>
		<polygon class="st0" points="9.2,1.6 8.5,0.8 3.5,5.8 3.5,5.8 2.8,6.5 3.5,7.2 8.5,12.2 9.2,11.4 4.2,6.5 "/>
	</svg>

	<svg id="icon-chevron-right" viewBox="0 0 13 13">
		<style type="text/css">
			.st0{fill:#333;}
		</style>
		<polygon class="st0" points="2.8,11.4 3.5,12.2 8.5,7.2 8.5,7.2 9.2,6.5 8.5,5.8 3.5,0.8 2.8,1.6 7.8,6.5 "/>
	</svg>

	<svg id="icon-gear" viewBox="0 0 13 13">
		<style type="text/css">
			.st0{fill:#333;}
		</style>
		<path class="st0" d="M10.6,7c0-0.2,0-0.3,0-0.5c0-0.2,0-0.4,0-0.5l1.2-0.9c0.1-0.1,0.1-0.2,0.1-0.3l-1.1-1.9c-0.1-0.1-0.2-0.2-0.3-0.1L9,3.2
			C8.7,3,8.4,2.8,8.1,2.7L7.9,1.2C7.8,1.1,7.7,1,7.6,1H5.4C5.3,1,5.2,1.1,5.1,1.2L4.9,2.7C4.6,2.8,4.3,3,4,3.2L2.6,2.7
			c-0.1,0-0.3,0-0.3,0.1L1.2,4.7C1.1,4.8,1.2,5,1.3,5.1L2.4,6c0,0.2-0.1,0.4-0.1,0.5s0,0.4,0,0.5L1.3,7.9C1.2,8,1.1,8.2,1.2,8.3
			l1.1,1.9c0.1,0.1,0.2,0.2,0.3,0.1L4,9.8c0.3,0.2,0.6,0.4,0.9,0.5l0.2,1.5c0,0.1,0.1,0.2,0.3,0.2h2.2c0.1,0,0.3-0.1,0.3-0.2l0.2-1.5
			C8.4,10.2,8.7,10,9,9.8l1.4,0.5c0.1,0,0.3,0,0.3-0.1l1.1-1.9c0.1-0.1,0-0.3-0.1-0.3L10.6,7z M6.5,8.9c-1.3,0-2.4-1.1-2.4-2.4
			s1.1-2.4,2.4-2.4s2.4,1.1,2.4,2.4S7.8,8.9,6.5,8.9z"/>
	</svg>
	
	<svg id="negative-corner" viewBox="0 0 6 6">
		<path fill="#454545" d="M0,6h6V0C6,3.3,3.3,6,0,6z"/>
	</svg>

	<svg id="icon-folder-open" viewBox="0 0 17 17">
		<style type="text/css">
			.st0{fill:#333;}
		</style>
		<path class="st0" d="M16,9.5c0,0.2-0.1,0.4-0.2,0.5L13.1,13c-0.5,0.5-1.4,1-2.1,1H2.3c-0.3,0-0.7-0.1-0.7-0.4c0-0.2,0.1-0.4,0.2-0.5L4.5,10
			C5,9.4,5.9,9,6.6,9h8.7C15.6,9,16,9.1,16,9.5z M13.2,6.4V8H6.6c-1,0-2.2,0.6-2.9,1.3L1,12.4c0-0.1,0-0.1,0-0.2l0-7.7
			C1,3.5,1.3,3,2.3,3h3.5c1,0,1.4,0.3,1.4,1.3V5h4.7C12.8,5,13.2,5.4,13.2,6.4z"/>
	</svg>

	<svg id="icon-clipboard" viewBox="0 0 17 17">
		<style type="text/css">
			.st0{fill:#333;}
		</style>
		<path class="st0" d="M14.6,2.9h-4.2c0-1-0.8-1.9-1.9-1.9S6.6,1.8,6.6,2.9H2.4c-0.3,0-0.5,0.2-0.5,0.5v12.2c0,0.3,0.2,0.5,0.5,0.5h12.2
			c0.3,0,0.5-0.2,0.5-0.5V3.3C15.1,3.1,14.9,2.9,14.6,2.9z M8.5,1.9c0.5,0,0.9,0.4,0.9,0.9S9,3.8,8.5,3.8S7.6,3.4,7.6,2.9
			S8,1.9,8.5,1.9z M14,15H3V4h1.7v1.5C4.7,5.8,5,6,5.2,6h6.6c0.3,0,0.5-0.2,0.5-0.5V4H14V15z"/>
		<path class="st0" d="M7.6,13.6l-3-3.5l0.9-0.9l2.2,1.7l4-3.6l0.9,0.9L7.6,13.6z"/>
	</svg>

	<svg id="icon-paint" viewBox="0 0 17 17">

	</svg>

	<svg id="icon-preview" viewBox="0 0 17 17">

	</svg>

	<svg id="icon-code" viewBox="0 0 17 17">

	</svg>

	<svg id="icon-sort" viewBox="0 0 17 17">

	</svg>

	<svg id="icon-zoom" viewBox="0 0 17 17">
		<style type="text/css">
			.st0{fill:#777;}
		</style>
		<path class="st0" d="M15.5,13.8l-3.5-3c-0.4-0.3-0.8-0.5-1.1-0.5c0.8-1,1.3-2.3,1.3-3.6C12.2,3.5,9.7,1,6.6,1C3.5,1,1,3.5,1,6.6
			s2.5,5.6,5.6,5.6c1.4,0,2.7-0.5,3.6-1.3c0,0.3,0.1,0.7,0.5,1.1l3,3.5c0.5,0.6,1.4,0.6,1.9,0.1C16.1,15.1,16.1,14.3,15.5,13.8
			L15.5,13.8z M6.6,10.4c-2.1,0-3.7-1.7-3.7-3.7s1.7-3.7,3.7-3.7c2.1,0,3.7,1.7,3.7,3.7S8.7,10.4,6.6,10.4z"/>
	</svg>

	<svg id="icon-new" viewBox="0 0 17 17">
		<style type="text/css">
			.st0{fill:#777;}
		</style>
		<polygon class="st0" points="3,2 3,15 14,15 14,7 8.9,7 8.9,2 "/>
		<polygon class="st0" points="9.7,6.3 13.9,6.3 9.7,2.1 "/>
	</svg>

	<svg id="icon-trashcan" viewBox="0 0 17 17">
		<style type="text/css">
			.st0{fill:#777;}
		</style>
		<polygon class="st0" points="4.1,4.3 12.9,4.3 12.9,3 9.5,3 9.5,2 7.6,2 7.6,3 4.1,3 "/>
		<path class="st0" d="M3.6,5v1l1,0l0.3,9h7.2l0.3-9l1,0V5L3.6,5L3.6,5z M6.8,13H6.1L6,7h0.9L6.8,13L6.8,13z M8.9,13H8.2l0-6h0.7L8.9,13z M10.9,13
			h-0.7l0-6h0.9L10.9,13z"/>
	</svg>

</svg>